<svg width="11" height="10" viewBox="0 0 11 10" fill="none" xmlns="http://www.w3.org/2000/svg">
<path d="M9.40416 5.00001C9.40416 5.41668 9.04582 5.74584 8.92916 6.11251C8.81249 6.47918 8.88749 6.97918 8.65833 7.29168C8.42916 7.60418 7.93749 7.68334 7.61666 7.91251C7.29582 8.14168 7.08332 8.58751 6.70832 8.71251C6.33332 8.83751 5.91666 8.60418 5.49999 8.60418C5.08333 8.60418 4.66666 8.83334 4.29166 8.71668C3.91666 8.60001 3.69583 8.14584 3.38333 7.91668C3.07083 7.68751 2.58333 7.61668 2.34166 7.29584C2.09999 6.97501 2.19583 6.49584 2.07083 6.11668C1.94583 5.73751 1.59583 5.41668 1.59583 5.00001C1.59583 4.58334 1.95416 4.25001 2.07083 3.88334C2.18749 3.51668 2.11249 3.01668 2.34166 2.70418C2.57083 2.39168 3.06249 2.31668 3.38333 2.08334C3.70416 1.85001 3.91666 1.41251 4.29166 1.28751C4.66666 1.16251 5.09583 1.40001 5.49999 1.40001C5.90416 1.40001 6.33332 1.17084 6.70832 1.28751C7.08332 1.40418 7.30416 1.85834 7.61666 2.08334C7.92916 2.30834 8.42499 2.38334 8.65833 2.70418C8.89166 3.02501 8.80416 3.50418 8.92916 3.88334C9.05416 4.26251 9.40416 4.58334 9.40416 5.00001Z" fill="#3D9CF4"/>
<path d="M3.83337 5.00002L5.08337 6.25002L7.16671 4.16669" stroke="black" stroke-linecap="round" stroke-linejoin="round"/>
</svg>
